<svg width="48" height="48" viewBox="0 0 48 48" fill="none" xmlns="http://www.w3.org/2000/svg">
<g clip-path="url(#clip0_2_1664)">
<path d="M30.0721 45H18.3652V33H30.0721V45ZM21.292 42H27.1454V36H21.292V42Z" fill="#C8399B"/>
<path d="M47.6322 16.5H32.9986V19.5H38.852V24H9.58484V19.5H15.4383V16.5H0.804688V19.5H6.65812V27H14.1681L9.58484 34.0455V40.5H12.5116V34.9545L17.6845 27H30.7523L35.9253 34.9545V40.5H38.852V34.0455L34.2688 27H41.7787V19.5H47.6322V16.5ZM24.2184 9C23.0656 8.99957 21.924 9.23257 20.8592 9.68561C19.7944 10.1387 18.8275 10.8028 18.0138 11.64L20.0815 13.7595C20.6244 13.2019 21.2692 12.7596 21.9791 12.4577C22.689 12.1559 23.4499 12.0006 24.2184 12.0006C24.9869 12.0006 25.7479 12.1559 26.4578 12.4577C27.1676 12.7596 27.8125 13.2019 28.3553 13.7595L30.4245 11.6385C29.6106 10.8014 28.6434 10.1373 27.5783 9.68452C26.5133 9.23172 25.3714 8.99909 24.2184 9Z" fill="#C8399B"/>
<path d="M13.875 7.39778L15.9442 9.51878C17.0299 8.40361 18.3196 7.51889 19.7393 6.91524C21.1591 6.31159 22.681 6.00087 24.218 6.00087C25.755 6.00087 27.277 6.31159 28.6967 6.91524C30.1164 7.51889 31.4061 8.40361 32.4918 9.51878L34.561 7.39778C33.2039 6.00342 31.5918 4.89716 29.817 4.14235C28.0422 3.38755 26.1395 2.99902 24.218 2.99902C22.2965 2.99902 20.3939 3.38755 18.6191 4.14235C16.8442 4.89716 15.2321 6.00342 13.875 7.39778Z" fill="#C8399B"/>
</g>
<defs>
<clipPath id="clip0_2_1664">
<rect width="46.8275" height="48" fill="white" transform="translate(0.804688)"/>
</clipPath>
</defs>
</svg>
