<svg width="47" height="48" viewBox="0 0 47 48" fill="none" xmlns="http://www.w3.org/2000/svg">
<path d="M43.1561 12.9357L28.5225 4.68574C28.3064 4.56389 28.0638 4.5 27.8172 4.5C27.5706 4.5 27.3279 4.56389 27.1119 4.68574L12.4783 12.9357C12.2488 13.0652 12.0575 13.2555 11.9243 13.4866C11.791 13.7177 11.7207 13.9813 11.7207 14.2497C11.7207 14.5182 11.791 14.7818 11.9243 15.0129C12.0575 15.244 12.2488 15.4343 12.4783 15.5637L26.3538 23.3862V39.4647L21.9111 36.9597L20.5004 39.5862L27.1119 43.3137C27.3279 43.4359 27.5705 43.4999 27.8172 43.4999C28.0639 43.4999 28.3065 43.4359 28.5225 43.3137L43.1561 35.0637C43.3856 34.9343 43.5771 34.7441 43.7104 34.513C43.8437 34.2818 43.9141 34.0183 43.9141 33.7497V14.2497C43.9141 13.9812 43.8437 13.7176 43.7104 13.4865C43.5771 13.2554 43.3856 13.0652 43.1561 12.9357ZM27.8172 7.71274L39.4143 14.2497L27.8172 20.7867L16.2201 14.2497L27.8172 7.71274ZM40.9874 32.8632L29.2806 39.4632V23.3847L40.9874 16.7847V32.8632Z" fill="#C8399B"/>
<path d="M14.6473 24H2.94043V21H14.6473V24ZM17.574 36H5.86715V33H17.574V36ZM20.5007 30H8.79387V27H20.5007V30Z" fill="#C8399B"/>
</svg>
