<svg width="68" height="20" viewBox="0 0 68 20" fill="none" xmlns="http://www.w3.org/2000/svg">
<circle cx="6.31909" cy="18.5427" r="0.997799" fill="white"/>
<circle cx="10.3103" cy="18.5427" r="0.997799" fill="white"/>
<rect width="10.6432" height="2.91025" rx="1.45512" fill="white"/>
<rect x="1.08105" y="5.57129" width="16.3805" height="2.6608" rx="1.3304" fill="white"/>
<rect x="2.41113" y="9.5625" width="13.2208" height="2.6608" rx="1.3304" fill="white"/>
<rect x="3.40918" y="13.5537" width="10.3937" height="2.6608" rx="1.3304" fill="white"/>
<path d="M19.9656 13.9682C19.9656 14.3816 20.0219 14.752 20.1343 15.0794C20.2468 15.4069 20.4072 15.6847 20.6155 15.9129C20.8239 16.1378 21.0752 16.3114 21.3696 16.4338C21.6639 16.5528 21.993 16.6124 22.3568 16.6124C22.7239 16.6124 23.0546 16.5528 23.349 16.4338C23.6433 16.3114 23.893 16.1378 24.0981 15.9129C24.3064 15.6847 24.4652 15.4069 24.5743 15.0794C24.6868 14.752 24.743 14.3816 24.743 13.9682C24.743 13.5581 24.6868 13.1893 24.5743 12.8619C24.4652 12.5345 24.3064 12.2567 24.0981 12.0285C23.893 11.8003 23.6433 11.625 23.349 11.5026C23.0546 11.3803 22.7239 11.3191 22.3568 11.3191C21.993 11.3191 21.6639 11.3803 21.3696 11.5026C21.0752 11.625 20.8239 11.8003 20.6155 12.0285C20.4072 12.2567 20.2468 12.5345 20.1343 12.8619C20.0219 13.1893 19.9656 13.5581 19.9656 13.9682ZM26.2809 18.9688H25.3284C25.1862 18.9688 25.0605 18.9489 24.9513 18.9092C24.8422 18.8729 24.7413 18.8051 24.6487 18.7058L23.5077 17.4507C23.1505 17.5599 22.7669 17.6145 22.3568 17.6145C21.8243 17.6145 21.3382 17.5235 20.8983 17.3416C20.4617 17.1597 20.0864 16.9084 19.7722 16.5875C19.458 16.2634 19.2149 15.8781 19.0429 15.4317C18.8709 14.9852 18.785 14.4974 18.785 13.9682C18.785 13.439 18.8709 12.9512 19.0429 12.5047C19.2149 12.0583 19.458 11.673 19.7722 11.3489C20.0864 11.0247 20.4617 10.7717 20.8983 10.5898C21.3382 10.4079 21.8243 10.317 22.3568 10.317C22.8926 10.317 23.3787 10.4079 23.8153 10.5898C24.2552 10.7717 24.6305 11.0247 24.9414 11.3489C25.2556 11.673 25.4987 12.0583 25.6707 12.5047C25.8426 12.9512 25.9286 13.439 25.9286 13.9682C25.9286 14.2956 25.8956 14.6082 25.8294 14.9058C25.7633 15.2002 25.6674 15.4763 25.5417 15.7343C25.416 15.9889 25.2622 16.2238 25.0803 16.4387C24.8984 16.6504 24.6917 16.8356 24.4602 16.9943L26.2809 18.9688ZM31.1956 12.4799V17.54H30.5507C30.4085 17.54 30.3175 17.4722 30.2779 17.3366L30.1985 16.8654C30.0926 16.9778 29.9802 17.0803 29.8611 17.1729C29.7454 17.2655 29.6214 17.3449 29.4891 17.4111C29.3568 17.4772 29.2146 17.5285 29.0624 17.5648C28.9136 17.6012 28.7532 17.6194 28.5812 17.6194C28.3034 17.6194 28.0587 17.5731 27.847 17.4805C27.6354 17.3879 27.4568 17.2573 27.3112 17.0886C27.169 16.9199 27.0615 16.7182 26.9888 16.4834C26.916 16.2452 26.8796 15.984 26.8796 15.6996V12.4799H27.9462V15.6996C27.9462 16.0402 28.024 16.3048 28.1794 16.4933C28.3381 16.6818 28.5779 16.7761 28.8987 16.7761C29.1335 16.7761 29.3518 16.7231 29.5536 16.6173C29.7586 16.5082 29.9504 16.3593 30.129 16.1708V12.4799H31.1956ZM33.6021 12.4799V17.54H32.5355V12.4799H33.6021ZM33.7807 10.952C33.7807 11.0479 33.7609 11.1388 33.7212 11.2248C33.6848 11.3108 33.6335 11.3869 33.5674 11.453C33.5012 11.5159 33.4235 11.5671 33.3342 11.6068C33.2482 11.6432 33.1556 11.6614 33.0564 11.6614C32.9605 11.6614 32.8696 11.6432 32.7836 11.6068C32.7009 11.5671 32.6281 11.5159 32.5653 11.453C32.5024 11.3869 32.4512 11.3108 32.4115 11.2248C32.3751 11.1388 32.3569 11.0479 32.3569 10.952C32.3569 10.8528 32.3751 10.7602 32.4115 10.6742C32.4512 10.5882 32.5024 10.5138 32.5653 10.4509C32.6281 10.3848 32.7009 10.3335 32.7836 10.2971C32.8696 10.2575 32.9605 10.2376 33.0564 10.2376C33.1556 10.2376 33.2482 10.2575 33.3342 10.2971C33.4235 10.3335 33.5012 10.3848 33.5674 10.4509C33.6335 10.5138 33.6848 10.5882 33.7212 10.6742C33.7609 10.7602 33.7807 10.8528 33.7807 10.952ZM38.519 13.4721C38.486 13.5151 38.4546 13.5482 38.4248 13.5713C38.395 13.5945 38.352 13.6061 38.2958 13.6061C38.2396 13.6061 38.1801 13.5862 38.1172 13.5465C38.0577 13.5068 37.9849 13.4638 37.8989 13.4175C37.8163 13.3679 37.7154 13.3233 37.5963 13.2836C37.4773 13.2439 37.3284 13.2241 37.1498 13.2241C36.9183 13.2241 36.7149 13.2654 36.5397 13.3481C36.3677 13.4308 36.2222 13.5498 36.1031 13.7053C35.9873 13.8574 35.8997 14.0443 35.8402 14.2659C35.7839 14.4841 35.7558 14.7305 35.7558 15.005C35.7558 15.2895 35.7873 15.5425 35.8501 15.764C35.9129 15.9856 36.0022 16.1725 36.118 16.3246C36.237 16.4768 36.3793 16.5925 36.5446 16.6719C36.7133 16.7513 36.9018 16.7909 37.1102 16.7909C37.3152 16.7909 37.4822 16.7661 37.6112 16.7165C37.7402 16.6669 37.8477 16.6124 37.9337 16.5528C38.0197 16.4933 38.0924 16.4387 38.1519 16.3891C38.2148 16.3395 38.2809 16.3147 38.3504 16.3147C38.4364 16.3147 38.5025 16.3478 38.5488 16.4139L38.8514 16.8058C38.7291 16.9547 38.5935 17.0803 38.4446 17.1829C38.2958 17.2854 38.1387 17.3697 37.9733 17.4359C37.808 17.4987 37.636 17.5433 37.4574 17.5698C37.2788 17.5996 37.0986 17.6145 36.9167 17.6145C36.6025 17.6145 36.3081 17.5566 36.0336 17.4408C35.7624 17.3218 35.5243 17.1514 35.3193 16.9299C35.1175 16.705 34.9571 16.4321 34.8381 16.1113C34.7223 15.7872 34.6644 15.4184 34.6644 15.005C34.6644 14.6313 34.7174 14.2857 34.8232 13.9682C34.929 13.6474 35.0828 13.3712 35.2845 13.1397C35.4896 12.9082 35.7426 12.728 36.0436 12.599C36.3445 12.4667 36.6918 12.4006 37.0854 12.4006C37.4525 12.4006 37.7749 12.4601 38.0527 12.5792C38.3338 12.6982 38.5835 12.8669 38.8018 13.0852L38.519 13.4721ZM40.7759 10.1979V14.4544H41.0041C41.0769 14.4544 41.1364 14.4444 41.1827 14.4246C41.229 14.4048 41.277 14.3634 41.3266 14.3006L42.7454 12.6784C42.795 12.6122 42.8496 12.5626 42.9091 12.5295C42.9687 12.4965 43.0447 12.4799 43.1373 12.4799H44.1047L42.3981 14.4048C42.2989 14.5337 42.1898 14.6363 42.0707 14.7123C42.1369 14.7586 42.1948 14.8116 42.2444 14.8711C42.294 14.9273 42.3419 14.9918 42.3882 15.0646L44.2089 17.54H43.2564C43.1704 17.54 43.096 17.5268 43.0331 17.5004C42.9736 17.4706 42.9207 17.4177 42.8744 17.3416L41.4109 15.3572C41.3613 15.2812 41.3117 15.2332 41.2621 15.2134C41.2125 15.1902 41.1381 15.1787 41.0389 15.1787H40.7759V17.54H39.7093V10.1979H40.7759ZM48.8271 11.6167C48.7907 11.6763 48.7527 11.7209 48.713 11.7507C48.6733 11.7771 48.6237 11.7904 48.5641 11.7904C48.5013 11.7904 48.4302 11.7639 48.3508 11.711C48.2748 11.6581 48.1788 11.6002 48.0631 11.5374C47.9506 11.4712 47.8167 11.4117 47.6613 11.3588C47.5058 11.3026 47.3206 11.2744 47.1056 11.2744C46.9072 11.2744 46.7319 11.2992 46.5798 11.3489C46.431 11.3985 46.3053 11.4679 46.2028 11.5572C46.1002 11.6465 46.0225 11.7523 45.9696 11.8747C45.92 11.9938 45.8952 12.1244 45.8952 12.2666C45.8952 12.4485 45.9431 12.6007 46.0391 12.723C46.135 12.8421 46.2606 12.9446 46.4161 13.0306C46.5748 13.1166 46.7551 13.1927 46.9568 13.2588C47.1586 13.3216 47.3636 13.3894 47.572 13.4622C47.7836 13.535 47.9903 13.6176 48.1921 13.7102C48.3938 13.8028 48.5724 13.9202 48.7279 14.0625C48.8866 14.2047 49.0139 14.3783 49.1098 14.5834C49.2057 14.7884 49.2537 15.0381 49.2537 15.3324C49.2537 15.6499 49.1991 15.9476 49.09 16.2254C48.9809 16.5032 48.8221 16.7463 48.6137 16.9547C48.4087 17.1597 48.154 17.3218 47.8498 17.4408C47.5488 17.5599 47.2049 17.6194 46.8179 17.6194C46.5897 17.6194 46.3665 17.5963 46.1482 17.55C45.9332 17.507 45.7265 17.4458 45.5281 17.3664C45.333 17.2837 45.1494 17.1845 44.9774 17.0688C44.8054 16.953 44.6517 16.824 44.5161 16.6818L44.8534 16.1262C44.8832 16.0799 44.9212 16.0435 44.9675 16.017C45.0138 15.9906 45.0651 15.9774 45.1213 15.9774C45.1974 15.9774 45.2817 16.0137 45.3743 16.0865C45.4669 16.156 45.5777 16.2337 45.7067 16.3197C45.839 16.4023 45.9977 16.4801 46.1829 16.5528C46.3681 16.6223 46.5897 16.657 46.8477 16.657C47.2677 16.657 47.5918 16.5545 47.82 16.3494C48.0515 16.1444 48.1673 15.8616 48.1673 15.5011C48.1673 15.2994 48.1193 15.1357 48.0234 15.01C47.9275 14.881 47.8002 14.7735 47.6414 14.6875C47.486 14.6015 47.3074 14.5288 47.1056 14.4693C46.9039 14.4097 46.6988 14.3469 46.4905 14.2807C46.2821 14.2113 46.0771 14.1319 45.8753 14.0426C45.6736 13.95 45.4934 13.831 45.3346 13.6854C45.1792 13.5366 45.0535 13.3547 44.9576 13.1397C44.8617 12.9215 44.8137 12.6503 44.8137 12.3261C44.8137 12.0682 44.8633 11.8185 44.9625 11.5771C45.0651 11.3356 45.2122 11.1223 45.4041 10.9371C45.5992 10.7486 45.839 10.5981 46.1234 10.4857C46.4078 10.3732 46.7319 10.317 47.0957 10.317C47.5058 10.317 47.8812 10.3815 48.2218 10.5105C48.5658 10.6394 48.8618 10.823 49.1098 11.0611L48.8271 11.6167ZM51.2984 13.0802C51.5068 12.8752 51.735 12.7114 51.983 12.5891C52.2311 12.4634 52.5205 12.4006 52.8512 12.4006C53.129 12.4006 53.3721 12.4469 53.5804 12.5395C53.7921 12.6321 53.9691 12.7627 54.1113 12.9314C54.2568 13.1 54.3659 13.3034 54.4387 13.5416C54.5114 13.7764 54.5478 14.036 54.5478 14.3204V17.54H53.4862V14.3204C53.4862 13.9798 53.4068 13.7152 53.2481 13.5267C53.0926 13.3382 52.8545 13.2439 52.5337 13.2439C52.2956 13.2439 52.074 13.2985 51.8689 13.4076C51.6672 13.5168 51.477 13.6656 51.2984 13.8541V17.54H50.2319V10.1979H51.2984V13.0802ZM57.9812 12.4006C58.3549 12.4006 58.6923 12.4617 58.9932 12.5841C59.2975 12.7065 59.5555 12.8801 59.7671 13.105C59.9821 13.3299 60.1475 13.6027 60.2632 13.9236C60.379 14.2444 60.4369 14.6048 60.4369 15.005C60.4369 15.4052 60.379 15.7657 60.2632 16.0865C60.1475 16.4073 59.9821 16.6818 59.7671 16.91C59.5555 17.1349 59.2975 17.3085 58.9932 17.4309C58.6923 17.5533 58.3549 17.6145 57.9812 17.6145C57.6042 17.6145 57.2635 17.5533 56.9593 17.4309C56.6583 17.3085 56.4004 17.1349 56.1854 16.91C55.9704 16.6818 55.805 16.4073 55.6893 16.0865C55.5735 15.7657 55.5157 15.4052 55.5157 15.005C55.5157 14.6048 55.5735 14.2444 55.6893 13.9236C55.805 13.6027 55.9704 13.3299 56.1854 13.105C56.4004 12.8801 56.6583 12.7065 56.9593 12.5841C57.2635 12.4617 57.6042 12.4006 57.9812 12.4006ZM57.9812 16.781C58.4376 16.781 58.7766 16.6289 58.9982 16.3246C59.2231 16.017 59.3355 15.5788 59.3355 15.01C59.3355 14.4411 59.2231 14.0029 58.9982 13.6954C58.7766 13.3845 58.4376 13.229 57.9812 13.229C57.5182 13.229 57.1742 13.3845 56.9494 13.6954C56.7245 14.0029 56.612 14.4411 56.612 15.01C56.612 15.5788 56.7245 16.017 56.9494 16.3246C57.1742 16.6289 57.5182 16.781 57.9812 16.781ZM62.5283 16.2701C62.6771 16.4619 62.8391 16.5975 63.0144 16.6768C63.193 16.7529 63.3898 16.7909 63.6048 16.7909C64.0215 16.7909 64.3456 16.6388 64.5771 16.3345C64.8119 16.0303 64.9293 15.5772 64.9293 14.9753C64.9293 14.6644 64.9029 14.3998 64.85 14.1815C64.797 13.9599 64.721 13.7797 64.6218 13.6408C64.5225 13.5019 64.4018 13.401 64.2596 13.3382C64.1174 13.2753 63.957 13.2439 63.7784 13.2439C63.5072 13.2439 63.2724 13.3034 63.074 13.4225C62.8788 13.5383 62.6969 13.7053 62.5283 13.9236V16.2701ZM62.4737 13.2141C62.6854 12.9661 62.9251 12.766 63.193 12.6139C63.4642 12.4617 63.7784 12.3857 64.1356 12.3857C64.42 12.3857 64.678 12.4436 64.9095 12.5593C65.141 12.6718 65.3394 12.8371 65.5048 13.0554C65.6702 13.2737 65.7975 13.5449 65.8868 13.869C65.9794 14.1898 66.0257 14.5585 66.0257 14.9753C66.0257 15.349 65.9744 15.6979 65.8719 16.022C65.7727 16.3428 65.6288 16.6223 65.4403 16.8604C65.2518 17.0952 65.0236 17.2804 64.7557 17.416C64.4878 17.5483 64.1852 17.6145 63.8479 17.6145C63.5502 17.6145 63.2972 17.5665 63.0888 17.4706C62.8838 17.3747 62.6969 17.2424 62.5283 17.0737V19.2218H61.4617V12.4799H62.1066C62.2521 12.4799 62.3447 12.5477 62.3844 12.6833L62.4737 13.2141Z" fill="white"/>
</svg>
