<svg width="149" height="36" viewBox="0 0 149 36" fill="none" xmlns="http://www.w3.org/2000/svg">
<path d="M1.84963 19.7027C-2.15176 14.8574 1.19155 8.76948 3.87493 5.70038C4.07127 5.47582 4.4308 5.66952 4.39153 5.96521C3.13989 15.388 15.8512 17.6516 24.8023 19.7385C27.6483 20.402 30.8668 21.7625 31.2913 24.6538C31.4394 25.6623 31.2012 26.5611 30.7065 27.2983C28.8494 30.0667 24.7133 29.1786 21.4647 28.431C14.5665 26.8436 5.28153 23.8584 1.84963 19.7027Z" fill="#BD1187"/>
<rect x="9.56641" y="0.478516" width="20.1353" height="9.93545" rx="4.96772" transform="rotate(22.96 9.56641 0.478516)" fill="#BD1187"/>
<circle cx="7.643" cy="29.4086" r="3.05706" fill="#BD1187"/>
<circle cx="18.3422" cy="32.4653" r="3.05706" fill="#BD1187"/>
<path d="M41.7685 22.3833C41.7685 23.3254 41.8966 24.1694 42.1528 24.9155C42.4091 25.6616 42.7746 26.2946 43.2494 26.8146C43.7242 27.3271 44.2969 27.7227 44.9676 28.0016C45.6384 28.2729 46.3882 28.4085 47.2172 28.4085C48.0537 28.4085 48.8073 28.2729 49.4781 28.0016C50.1488 27.7227 50.7178 27.3271 51.185 26.8146C51.6598 26.2946 52.0216 25.6616 52.2702 24.9155C52.5265 24.1694 52.6546 23.3254 52.6546 22.3833C52.6546 21.4488 52.5265 20.6085 52.2702 19.8624C52.0216 19.1164 51.6598 18.4833 51.185 17.9633C50.7178 17.4433 50.1488 17.0439 49.4781 16.7651C48.8073 16.4862 48.0537 16.3468 47.2172 16.3468C46.3882 16.3468 45.6384 16.4862 44.9676 16.7651C44.2969 17.0439 43.7242 17.4433 43.2494 17.9633C42.7746 18.4833 42.4091 19.1164 42.1528 19.8624C41.8966 20.6085 41.7685 21.4488 41.7685 22.3833ZM56.1589 33.7781H53.9885C53.6645 33.7781 53.3781 33.7329 53.1294 33.6425C52.8807 33.5596 52.6508 33.4051 52.4398 33.179L49.8398 30.319C49.0259 30.5677 48.1517 30.692 47.2172 30.692C46.0039 30.692 44.896 30.4848 43.8937 30.0703C42.8989 29.6558 42.0436 29.083 41.3276 28.352C40.6117 27.6135 40.0578 26.7355 39.6659 25.7181C39.274 24.7007 39.0781 23.5891 39.0781 22.3833C39.0781 21.1775 39.274 20.0659 39.6659 19.0485C40.0578 18.0311 40.6117 17.1532 41.3276 16.4146C42.0436 15.6761 42.8989 15.0995 43.8937 14.6851C44.896 14.2706 46.0039 14.0633 47.2172 14.0633C48.4381 14.0633 49.5459 14.2706 50.5407 14.6851C51.543 15.0995 52.3984 15.6761 53.1068 16.4146C53.8227 17.1532 54.3766 18.0311 54.7685 19.0485C55.1604 20.0659 55.3563 21.1775 55.3563 22.3833C55.3563 23.1294 55.281 23.8416 55.1302 24.5198C54.9795 25.1906 54.761 25.8198 54.4746 26.4077C54.1882 26.988 53.8378 27.523 53.4233 28.0129C53.0088 28.4952 52.5378 28.9172 52.0102 29.279L56.1589 33.7781ZM67.3582 18.992V30.5225H65.8886C65.5646 30.5225 65.3573 30.368 65.2669 30.059L65.086 28.9851C64.8449 29.2413 64.5886 29.4749 64.3173 29.6859C64.0536 29.897 63.771 30.0778 63.4695 30.2285C63.1681 30.3793 62.844 30.4961 62.4973 30.579C62.1582 30.6619 61.7927 30.7033 61.4008 30.7033C60.7678 30.7033 60.2101 30.5978 59.7278 30.3868C59.2454 30.1758 58.8385 29.8781 58.5069 29.4938C58.1828 29.1094 57.9379 28.6497 57.7721 28.1146C57.6063 27.572 57.5234 26.9767 57.5234 26.3285V18.992H59.9539V26.3285C59.9539 27.1048 60.131 27.7077 60.4852 28.1372C60.8469 28.5668 61.3933 28.7816 62.1243 28.7816C62.6594 28.7816 63.1568 28.661 63.6165 28.4199C64.0837 28.1712 64.5208 27.832 64.9278 27.4025V18.992H67.3582ZM72.8419 18.992V30.5225H70.4114V18.992H72.8419ZM73.2488 15.5103C73.2488 15.7288 73.2036 15.9361 73.1132 16.132C73.0303 16.328 72.9135 16.5013 72.7628 16.652C72.612 16.7952 72.4349 16.912 72.2314 17.0024C72.0355 17.0853 71.8245 17.1268 71.5984 17.1268C71.3799 17.1268 71.1726 17.0853 70.9767 17.0024C70.7883 16.912 70.6225 16.7952 70.4793 16.652C70.3361 16.5013 70.2193 16.328 70.1288 16.132C70.0459 15.9361 70.0045 15.7288 70.0045 15.5103C70.0045 15.2842 70.0459 15.0732 70.1288 14.8772C70.2193 14.6813 70.3361 14.5117 70.4793 14.3685C70.6225 14.2178 70.7883 14.101 70.9767 14.0181C71.1726 13.9277 71.3799 13.8824 71.5984 13.8824C71.8245 13.8824 72.0355 13.9277 72.2314 14.0181C72.4349 14.101 72.612 14.2178 72.7628 14.3685C72.9135 14.5117 73.0303 14.6813 73.1132 14.8772C73.2036 15.0732 73.2488 15.2842 73.2488 15.5103ZM84.0461 21.2529C83.9707 21.3509 83.8991 21.4262 83.8313 21.479C83.7635 21.5317 83.6655 21.5581 83.5374 21.5581C83.4093 21.5581 83.2736 21.5129 83.1304 21.4225C82.9948 21.332 82.829 21.234 82.633 21.1285C82.4446 21.0155 82.2148 20.9138 81.9435 20.8233C81.6722 20.7329 81.333 20.6877 80.9261 20.6877C80.3986 20.6877 79.9351 20.7819 79.5357 20.9703C79.1438 21.1587 78.8122 21.43 78.5409 21.7842C78.2771 22.1309 78.0774 22.5567 77.9417 23.0616C77.8136 23.559 77.7496 24.1204 77.7496 24.7459C77.7496 25.394 77.8212 25.9706 77.9643 26.4755C78.1075 26.9804 78.311 27.4062 78.5748 27.7529C78.8461 28.0996 79.1701 28.3633 79.547 28.5442C79.9313 28.7251 80.3609 28.8155 80.8357 28.8155C81.3029 28.8155 81.6835 28.759 81.9774 28.6459C82.2713 28.5329 82.5162 28.4085 82.7122 28.2729C82.9081 28.1372 83.0739 28.0129 83.2096 27.8998C83.3528 27.7868 83.5035 27.7303 83.6617 27.7303C83.8577 27.7303 84.0084 27.8056 84.1139 27.9564L84.8035 28.8494C84.5246 29.1885 84.2157 29.4749 83.8765 29.7085C83.5374 29.9422 83.1794 30.1343 82.8026 30.2851C82.4258 30.4283 82.0339 30.53 81.627 30.5903C81.22 30.6581 80.8093 30.692 80.3948 30.692C79.6788 30.692 79.0081 30.5601 78.3826 30.2964C77.7646 30.0251 77.222 29.637 76.7548 29.132C76.2951 28.6196 75.9296 27.9978 75.6583 27.2668C75.3945 26.5283 75.2626 25.688 75.2626 24.7459C75.2626 23.8943 75.3832 23.1068 75.6243 22.3833C75.8655 21.6523 76.2159 21.023 76.6757 20.4955C77.1429 19.968 77.7194 19.5572 78.4052 19.2633C79.091 18.9619 79.8823 18.8111 80.7791 18.8111C81.6157 18.8111 82.3504 18.9468 82.9835 19.2181C83.6241 19.4894 84.1931 19.8738 84.6904 20.3711L84.0461 21.2529ZM89.1889 13.792V23.4911H89.7089C89.8747 23.4911 90.0103 23.4685 90.1158 23.4233C90.2213 23.3781 90.3306 23.2839 90.4437 23.1407L93.6767 19.4442C93.7897 19.2935 93.9141 19.1804 94.0497 19.1051C94.1854 19.0297 94.3587 18.992 94.5697 18.992H96.7741L92.8854 23.3781C92.6593 23.672 92.4106 23.9056 92.1393 24.079C92.29 24.1845 92.4219 24.3051 92.535 24.4407C92.648 24.5688 92.7573 24.7158 92.8628 24.8816L97.0115 30.5225H94.841C94.6451 30.5225 94.4755 30.4923 94.3324 30.432C94.1967 30.3642 94.0761 30.2436 93.9706 30.0703L90.6358 25.5485C90.5228 25.3752 90.4097 25.2659 90.2967 25.2207C90.1837 25.168 90.0141 25.1416 89.788 25.1416H89.1889V30.5225H86.7584V13.792H89.1889ZM107.535 17.0251C107.452 17.1607 107.365 17.2624 107.275 17.3303C107.185 17.3906 107.071 17.4207 106.936 17.4207C106.793 17.4207 106.631 17.3604 106.45 17.2398C106.276 17.1193 106.058 16.9874 105.794 16.8442C105.538 16.6935 105.233 16.5578 104.878 16.4372C104.524 16.3091 104.102 16.2451 103.612 16.2451C103.16 16.2451 102.761 16.3016 102.414 16.4146C102.075 16.5277 101.789 16.6859 101.555 16.8894C101.321 17.0929 101.144 17.334 101.024 17.6129C100.911 17.8842 100.854 18.1819 100.854 18.5059C100.854 18.9204 100.963 19.2671 101.182 19.5459C101.4 19.8172 101.687 20.0509 102.041 20.2468C102.403 20.4427 102.814 20.6161 103.273 20.7668C103.733 20.91 104.2 21.0645 104.675 21.2303C105.157 21.3961 105.628 21.5845 106.088 21.7955C106.548 22.0065 106.955 22.274 107.309 22.5981C107.671 22.9222 107.961 23.3178 108.179 23.7851C108.398 24.2523 108.507 24.8213 108.507 25.492C108.507 26.2155 108.383 26.8938 108.134 27.5268C107.885 28.1598 107.524 28.7138 107.049 29.1885C106.582 29.6558 106.001 30.0251 105.308 30.2964C104.622 30.5677 103.838 30.7033 102.957 30.7033C102.437 30.7033 101.928 30.6506 101.431 30.5451C100.941 30.4471 100.47 30.3077 100.018 30.1268C99.5729 29.9384 99.1547 29.7123 98.7628 29.4485C98.3709 29.1848 98.0205 28.8909 97.7115 28.5668L98.4802 27.3007C98.548 27.1952 98.6347 27.1123 98.7402 27.052C98.8457 26.9917 98.9625 26.9616 99.0906 26.9616C99.2639 26.9616 99.4561 27.0445 99.6671 27.2103C99.8781 27.3685 100.131 27.5456 100.425 27.7416C100.726 27.93 101.088 28.1071 101.51 28.2729C101.932 28.4312 102.437 28.5103 103.025 28.5103C103.982 28.5103 104.72 28.2767 105.24 27.8094C105.768 27.3422 106.031 26.6978 106.031 25.8764C106.031 25.4167 105.922 25.0436 105.704 24.7572C105.485 24.4633 105.195 24.2184 104.833 24.0225C104.479 23.8265 104.072 23.6607 103.612 23.5251C103.153 23.3894 102.685 23.2462 102.211 23.0955C101.736 22.9372 101.269 22.7564 100.809 22.5529C100.349 22.3419 99.9384 22.0706 99.5767 21.739C99.2225 21.3998 98.9361 20.9853 98.7176 20.4955C98.499 19.9981 98.3897 19.3801 98.3897 18.6416C98.3897 18.0538 98.5028 17.4848 98.7289 16.9346C98.9625 16.3845 99.2979 15.8984 99.735 15.4764C100.18 15.0468 100.726 14.7039 101.374 14.4477C102.022 14.1914 102.761 14.0633 103.59 14.0633C104.524 14.0633 105.38 14.2103 106.156 14.5042C106.94 14.7981 107.614 15.2164 108.179 15.759L107.535 17.0251ZM113.166 20.3598C113.641 19.8926 114.161 19.5196 114.726 19.2407C115.292 18.9543 115.951 18.8111 116.705 18.8111C117.338 18.8111 117.892 18.9167 118.366 19.1277C118.849 19.3387 119.252 19.6364 119.576 20.0207C119.908 20.4051 120.156 20.8685 120.322 21.4111C120.488 21.9462 120.571 22.5378 120.571 23.1859V30.5225H118.152V23.1859C118.152 22.4097 117.971 21.8068 117.609 21.3772C117.255 20.9477 116.712 20.7329 115.981 20.7329C115.439 20.7329 114.934 20.8572 114.466 21.1059C114.007 21.3546 113.573 21.6938 113.166 22.1233V30.5225H110.736V13.792H113.166V20.3598ZM128.395 18.8111C129.246 18.8111 130.015 18.9506 130.701 19.2294C131.394 19.5082 131.982 19.9039 132.464 20.4164C132.954 20.9288 133.331 21.5506 133.595 22.2816C133.858 23.0126 133.99 23.834 133.99 24.7459C133.99 25.6578 133.858 26.4793 133.595 27.2103C133.331 27.9413 132.954 28.5668 132.464 29.0868C131.982 29.5993 131.394 29.9949 130.701 30.2738C130.015 30.5526 129.246 30.692 128.395 30.692C127.535 30.692 126.759 30.5526 126.066 30.2738C125.38 29.9949 124.792 29.5993 124.302 29.0868C123.812 28.5668 123.436 27.9413 123.172 27.2103C122.908 26.4793 122.776 25.6578 122.776 24.7459C122.776 23.834 122.908 23.0126 123.172 22.2816C123.436 21.5506 123.812 20.9288 124.302 20.4164C124.792 19.9039 125.38 19.5082 126.066 19.2294C126.759 18.9506 127.535 18.8111 128.395 18.8111ZM128.395 28.7929C129.435 28.7929 130.207 28.4462 130.712 27.7529C131.224 27.052 131.481 26.0535 131.481 24.7572C131.481 23.461 131.224 22.4625 130.712 21.7616C130.207 21.0532 129.435 20.699 128.395 20.699C127.339 20.699 126.556 21.0532 126.043 21.7616C125.531 22.4625 125.275 23.461 125.275 24.7572C125.275 26.0535 125.531 27.052 126.043 27.7529C126.556 28.4462 127.339 28.7929 128.395 28.7929ZM138.756 27.6285C139.095 28.0656 139.464 28.3746 139.864 28.5555C140.271 28.7288 140.719 28.8155 141.209 28.8155C142.158 28.8155 142.897 28.4688 143.425 27.7755C143.96 27.0822 144.227 26.0497 144.227 24.6781C144.227 23.9697 144.167 23.3668 144.046 22.8694C143.926 22.3645 143.752 21.9538 143.526 21.6372C143.3 21.3207 143.025 21.0909 142.701 20.9477C142.377 20.8045 142.011 20.7329 141.605 20.7329C140.987 20.7329 140.451 20.8685 139.999 21.1398C139.555 21.4036 139.14 21.7842 138.756 22.2816V27.6285ZM138.631 20.6651C139.114 20.0998 139.66 19.6439 140.271 19.2972C140.889 18.9506 141.605 18.7772 142.418 18.7772C143.067 18.7772 143.654 18.9091 144.182 19.1729C144.709 19.4291 145.162 19.8059 145.538 20.3033C145.915 20.8007 146.205 21.4187 146.409 22.1572C146.62 22.8883 146.725 23.7285 146.725 24.6781C146.725 25.5297 146.609 26.3248 146.375 27.0633C146.149 27.7943 145.821 28.4312 145.391 28.9738C144.962 29.5088 144.442 29.9309 143.831 30.2399C143.221 30.5413 142.531 30.692 141.763 30.692C141.085 30.692 140.508 30.5828 140.033 30.3642C139.566 30.1456 139.14 29.8442 138.756 29.4599V34.3546H136.325V18.992H137.795C138.127 18.992 138.338 19.1465 138.428 19.4555L138.631 20.6651Z" fill="#BD1187"/>
</svg>
