<svg width="48" height="48" viewBox="0 0 48 48" fill="none" xmlns="http://www.w3.org/2000/svg">
<path d="M16.542 16.5V26.202C16.5457 27.6217 16.9406 29.0114 17.6814 30.2109C18.4221 31.4105 19.4784 32.3711 20.7287 32.982L23.8588 34.5L26.9889 32.9805C28.2391 32.3696 29.2955 31.409 30.0362 30.2094C30.777 29.0099 31.1719 27.6202 31.1756 26.2005V16.5H16.542ZM28.2489 26.202C28.2463 27.0534 28.009 27.8867 27.5645 28.6059C27.1199 29.3251 26.4862 29.9009 25.7363 30.267L23.8588 31.1805L21.9813 30.27C21.2309 29.9037 20.5969 29.3274 20.1523 28.6077C19.7077 27.8879 19.4708 27.0539 19.4687 26.202V19.5H28.2489V26.202Z" fill="#C8399B"/>
<path d="M44.9523 26.1209C45.501 25.5583 45.8092 24.7954 45.8092 23.9999C45.8092 23.2044 45.501 22.4415 44.9523 21.8789L36.4838 13.1984L40.7276 8.90538C41.3535 9.06511 42.0134 9.00861 42.6048 8.74464C43.1963 8.48068 43.6861 8.02401 43.9985 7.4455C44.3109 6.86698 44.4282 6.19897 44.3324 5.5451C44.2365 4.89123 43.9328 4.28807 43.4684 3.8292C43.004 3.37033 42.4048 3.08141 41.7638 3.00726C41.1228 2.93311 40.4759 3.07789 39.9233 3.41913C39.3708 3.76036 38.9436 4.27898 38.708 4.89451C38.4724 5.51004 38.4416 6.18806 38.6203 6.82338L34.4146 11.0774L25.9286 2.37738C25.3798 1.81497 24.6355 1.49902 23.8594 1.49902C23.0834 1.49902 22.3391 1.81497 21.7902 2.37738L13.3218 11.0609L9.13364 6.70788C9.28866 6.06611 9.23272 5.38983 8.97451 4.78397C8.7163 4.17811 8.27024 3.67653 7.70555 3.35704C7.14085 3.03756 6.48908 2.91802 5.85134 3.01699C5.2136 3.11595 4.62556 3.42789 4.17842 3.90439C3.73129 4.3809 3.45006 4.99534 3.37837 5.65239C3.30669 6.30945 3.44854 6.97239 3.78194 7.53838C4.11533 8.10436 4.62163 8.54174 5.22228 8.78267C5.82293 9.0236 6.48437 9.05461 7.10397 8.87088L11.2526 13.1804L2.76511 21.8789C2.21643 22.4415 1.9082 23.2044 1.9082 23.9999C1.9082 24.7954 2.21643 25.5583 2.76511 26.1209L11.2526 34.8194L7.10397 39.1289C6.48568 38.9463 5.82591 38.978 5.22693 39.2188C4.62795 39.4597 4.12321 39.8964 3.79095 40.4612C3.45869 41.026 3.31746 41.6873 3.38916 42.3428C3.46085 42.9982 3.74147 43.6111 4.18751 44.0864C4.63355 44.5618 5.2201 44.873 5.85625 44.9719C6.4924 45.0708 7.14262 44.9519 7.70611 44.6335C8.26961 44.3151 8.71491 43.8151 8.973 43.211C9.2311 42.6068 9.28756 41.9323 9.13364 41.2919L13.3218 36.9419L21.7902 45.6209C22.3391 46.1833 23.0834 46.4992 23.8594 46.4992C24.6355 46.4992 25.3798 46.1833 25.9286 45.6209L34.4161 36.9224L38.6189 41.1764C38.4408 41.8102 38.4716 42.4864 38.7066 43.1004C38.9416 43.7144 39.3676 44.2318 39.9186 44.5724C40.4696 44.9129 41.1148 45.0577 41.7542 44.9842C42.3937 44.9107 42.9916 44.6231 43.4553 44.1659C43.919 43.7087 44.2227 43.1074 44.3192 42.4553C44.4157 41.8033 44.2996 41.1368 43.989 40.5592C43.6784 39.9816 43.1906 39.5251 42.6012 39.2605C42.0118 38.996 41.3538 38.9381 40.729 39.0959L36.4853 34.8014L44.9523 26.1209ZM23.8594 43.4999L4.83576 23.9999L23.8594 4.49988L42.8831 23.9999L23.8594 43.4999Z" fill="#C8399B"/>
</svg>
