<svg width="85" height="25" viewBox="0 0 85 25" fill="none" xmlns="http://www.w3.org/2000/svg">
<circle cx="7.98423" cy="23.4266" r="1.26059" fill="#BD1187"/>
<circle cx="13.0262" cy="23.4266" r="1.26059" fill="#BD1187"/>
<rect width="13.4463" height="3.67673" rx="1.83836" fill="#BD1187"/>
<rect x="1.36523" y="7.03809" width="20.6947" height="3.36158" rx="1.68079" fill="#BD1187"/>
<rect x="3.0459" y="12.0811" width="16.7029" height="3.36158" rx="1.68079" fill="#BD1187"/>
<rect x="4.30762" y="17.123" width="13.1312" height="3.36158" rx="1.68079" fill="#BD1187"/>
<path d="M25.2246 17.174C25.2246 17.6962 25.2956 18.1642 25.4377 18.5779C25.5797 18.9915 25.7824 19.3425 26.0456 19.6308C26.3089 19.9149 26.6264 20.1343 26.9983 20.2889C27.3701 20.4393 27.7859 20.5145 28.2455 20.5145C28.7093 20.5145 29.1271 20.4393 29.499 20.2889C29.8709 20.1343 30.1863 19.9149 30.4454 19.6308C30.7086 19.3425 30.9092 18.9915 31.047 18.5779C31.1891 18.1642 31.2601 17.6962 31.2601 17.174C31.2601 16.6558 31.1891 16.19 31.047 15.7763C30.9092 15.3627 30.7086 15.0117 30.4454 14.7234C30.1863 14.4351 29.8709 14.2136 29.499 14.059C29.1271 13.9044 28.7093 13.8271 28.2455 13.8271C27.7859 13.8271 27.3701 13.9044 26.9983 14.059C26.6264 14.2136 26.3089 14.4351 26.0456 14.7234C25.7824 15.0117 25.5797 15.3627 25.4377 15.7763C25.2956 16.19 25.2246 16.6558 25.2246 17.174ZM33.2031 23.4915H31.9997C31.82 23.4915 31.6613 23.4665 31.5234 23.4163C31.3855 23.3704 31.2581 23.2847 31.1411 23.1594L29.6995 21.5737C29.2483 21.7116 28.7636 21.7805 28.2455 21.7805C27.5728 21.7805 26.9586 21.6656 26.4029 21.4358C25.8513 21.206 25.3771 20.8885 24.9802 20.4832C24.5832 20.0737 24.2761 19.5869 24.0588 19.0229C23.8416 18.4588 23.7329 17.8425 23.7329 17.174C23.7329 16.5054 23.8416 15.8891 24.0588 15.3251C24.2761 14.761 24.5832 14.2742 24.9802 13.8647C25.3771 13.4553 25.8513 13.1356 26.4029 12.9058C26.9586 12.676 27.5728 12.5611 28.2455 12.5611C28.9224 12.5611 29.5366 12.676 30.0881 12.9058C30.6438 13.1356 31.1181 13.4553 31.5108 13.8647C31.9078 14.2742 32.2149 14.761 32.4322 15.3251C32.6494 15.8891 32.7581 16.5054 32.7581 17.174C32.7581 17.5876 32.7163 17.9825 32.6327 18.3585C32.5491 18.7304 32.428 19.0793 32.2692 19.4052C32.1104 19.7269 31.9161 20.0236 31.6863 20.2951C31.4565 20.5626 31.1954 20.7965 30.9029 20.9971L33.2031 23.4915ZM39.4122 15.2937V21.6865H38.5975C38.4178 21.6865 38.3029 21.6009 38.2528 21.4296L38.1525 20.8341C38.0188 20.9762 37.8767 21.1057 37.7263 21.2227C37.58 21.3397 37.4234 21.44 37.2562 21.5236C37.0891 21.6071 36.9094 21.6719 36.7172 21.7179C36.5292 21.7638 36.3266 21.7868 36.1093 21.7868C35.7583 21.7868 35.4491 21.7283 35.1817 21.6113C34.9143 21.4943 34.6887 21.3293 34.5048 21.1162C34.3252 20.9031 34.1894 20.6482 34.0974 20.3516C34.0055 20.0507 33.9596 19.7206 33.9596 19.3613V15.2937H35.3071V19.3613C35.3071 19.7917 35.4052 20.1259 35.6016 20.3641C35.8022 20.6023 36.1051 20.7213 36.5104 20.7213C36.8071 20.7213 37.0828 20.6545 37.3377 20.5208C37.5968 20.3829 37.8391 20.1949 38.0647 19.9567V15.2937H39.4122ZM42.4525 15.2937V21.6865H41.105V15.2937H42.4525ZM42.6782 13.3633C42.6782 13.4845 42.6531 13.5994 42.603 13.7081C42.557 13.8167 42.4922 13.9128 42.4087 13.9964C42.3251 14.0757 42.2269 14.1405 42.1141 14.1906C42.0055 14.2366 41.8885 14.2596 41.7631 14.2596C41.6419 14.2596 41.527 14.2366 41.4184 14.1906C41.3139 14.1405 41.222 14.0757 41.1426 13.9964C41.0633 13.9128 40.9985 13.8167 40.9483 13.7081C40.9024 13.5994 40.8794 13.4845 40.8794 13.3633C40.8794 13.238 40.9024 13.121 40.9483 13.0124C40.9985 12.9037 41.0633 12.8097 41.1426 12.7303C41.222 12.6468 41.3139 12.582 41.4184 12.536C41.527 12.4859 41.6419 12.4608 41.7631 12.4608C41.8885 12.4608 42.0055 12.4859 42.1141 12.536C42.2269 12.582 42.3251 12.6468 42.4087 12.7303C42.4922 12.8097 42.557 12.9037 42.603 13.0124C42.6531 13.121 42.6782 13.238 42.6782 13.3633ZM48.6645 16.5472C48.6227 16.6015 48.583 16.6433 48.5454 16.6726C48.5078 16.7018 48.4535 16.7164 48.3824 16.7164C48.3114 16.7164 48.2362 16.6914 48.1568 16.6412C48.0816 16.5911 47.9897 16.5368 47.881 16.4783C47.7766 16.4156 47.6491 16.3592 47.4987 16.309C47.3483 16.2589 47.1603 16.2338 46.9346 16.2338C46.6422 16.2338 46.3852 16.2861 46.1638 16.3905C45.9465 16.495 45.7626 16.6454 45.6122 16.8418C45.466 17.034 45.3552 17.2701 45.28 17.55C45.209 17.8258 45.1735 18.1371 45.1735 18.4839C45.1735 18.8432 45.2132 19.1628 45.2926 19.4428C45.372 19.7227 45.4848 19.9588 45.631 20.151C45.7814 20.3432 45.9611 20.4894 46.17 20.5897C46.3831 20.69 46.6213 20.7401 46.8845 20.7401C47.1436 20.7401 47.3546 20.7088 47.5175 20.6461C47.6805 20.5835 47.8163 20.5145 47.9249 20.4393C48.0335 20.3641 48.1255 20.2951 48.2007 20.2325C48.2801 20.1698 48.3636 20.1385 48.4514 20.1385C48.56 20.1385 48.6436 20.1802 48.7021 20.2638L49.0844 20.7589C48.9298 20.947 48.7585 21.1057 48.5705 21.2353C48.3824 21.3648 48.184 21.4713 47.975 21.5549C47.7661 21.6343 47.5489 21.6907 47.3232 21.7241C47.0976 21.7617 46.8699 21.7805 46.6401 21.7805C46.2431 21.7805 45.8713 21.7074 45.5245 21.5612C45.1818 21.4108 44.881 21.1956 44.622 20.9156C44.3671 20.6315 44.1644 20.2868 44.014 19.8815C43.8678 19.472 43.7947 19.0061 43.7947 18.4839C43.7947 18.0117 43.8615 17.5751 43.9952 17.174C44.1289 16.7687 44.3232 16.4198 44.5781 16.1273C44.8371 15.8348 45.1568 15.6071 45.537 15.4441C45.9172 15.277 46.356 15.1934 46.8532 15.1934C47.317 15.1934 47.7243 15.2687 48.0753 15.4191C48.4305 15.5695 48.7459 15.7826 49.0217 16.0584L48.6645 16.5472ZM51.5158 12.4107V17.7882H51.8041C51.896 17.7882 51.9712 17.7756 52.0297 17.7506C52.0882 17.7255 52.1488 17.6733 52.2115 17.5939L54.0039 15.5444C54.0666 15.4609 54.1356 15.3982 54.2108 15.3564C54.286 15.3146 54.3821 15.2937 54.4991 15.2937H55.7212L53.5652 17.7255C53.4399 17.8884 53.302 18.018 53.1516 18.1141C53.2351 18.1726 53.3083 18.2394 53.3709 18.3146C53.4336 18.3857 53.4942 18.4671 53.5527 18.5591L55.8528 21.6865H54.6495C54.5409 21.6865 54.4468 21.6698 54.3675 21.6364C54.2922 21.5988 54.2254 21.5319 54.1669 21.4358L52.318 18.9288C52.2553 18.8327 52.1926 18.7722 52.13 18.7471C52.0673 18.7178 51.9733 18.7032 51.8479 18.7032H51.5158V21.6865H50.1683V12.4107H51.5158ZM61.6873 14.2032C61.6414 14.2784 61.5933 14.3348 61.5432 14.3724C61.4931 14.4058 61.4304 14.4225 61.3552 14.4225C61.2758 14.4225 61.186 14.3891 61.0857 14.3223C60.9896 14.2554 60.8684 14.1823 60.7222 14.1029C60.5801 14.0193 60.4109 13.9441 60.2145 13.8773C60.0181 13.8062 59.7841 13.7707 59.5125 13.7707C59.2618 13.7707 59.0404 13.8021 58.8482 13.8647C58.6602 13.9274 58.5014 14.0152 58.3719 14.128C58.2423 14.2408 58.1441 14.3745 58.0773 14.5291C58.0146 14.6795 57.9833 14.8446 57.9833 15.0242C57.9833 15.254 58.0439 15.4462 58.165 15.6008C58.2862 15.7512 58.445 15.8808 58.6414 15.9894C58.8419 16.098 59.0696 16.1941 59.3245 16.2777C59.5794 16.3571 59.8384 16.4428 60.1017 16.5347C60.3691 16.6266 60.6302 16.7311 60.8851 16.848C61.14 16.965 61.3656 17.1134 61.562 17.293C61.7626 17.4727 61.9234 17.6921 62.0446 17.9511C62.1658 18.2102 62.2263 18.5256 62.2263 18.8975C62.2263 19.2986 62.1574 19.6747 62.0195 20.0256C61.8816 20.3766 61.6811 20.6837 61.4178 20.947C61.1588 21.206 60.8371 21.4108 60.4527 21.5612C60.0724 21.7116 59.6379 21.7868 59.149 21.7868C58.8607 21.7868 58.5787 21.7576 58.3029 21.6991C58.0313 21.6447 57.7702 21.5674 57.5195 21.4672C57.273 21.3627 57.0411 21.2374 56.8238 21.0911C56.6065 20.9449 56.4122 20.7819 56.2409 20.6023L56.6671 19.9003C56.7047 19.8418 56.7528 19.7958 56.8113 19.7624C56.8698 19.729 56.9345 19.7123 57.0056 19.7123C57.1017 19.7123 57.2082 19.7582 57.3252 19.8502C57.4422 19.9379 57.5822 20.0361 57.7451 20.1447C57.9123 20.2492 58.1128 20.3474 58.3468 20.4393C58.5808 20.527 58.8607 20.5709 59.1866 20.5709C59.7173 20.5709 60.1268 20.4414 60.4151 20.1823C60.7075 19.9233 60.8538 19.566 60.8538 19.1106C60.8538 18.8557 60.7932 18.6489 60.672 18.4901C60.5508 18.3272 60.39 18.1914 60.1894 18.0827C59.993 17.9741 59.7674 17.8822 59.5125 17.807C59.2577 17.7318 58.9986 17.6524 58.7354 17.5688C58.4721 17.4811 58.2131 17.3808 57.9582 17.268C57.7033 17.151 57.4756 17.0006 57.2751 16.8167C57.0787 16.6287 56.9199 16.3989 56.7987 16.1273C56.6776 15.8515 56.617 15.5089 56.617 15.0994C56.617 14.7735 56.6797 14.4581 56.805 14.153C56.9345 13.848 57.1205 13.5785 57.3628 13.3445C57.6093 13.1064 57.9123 12.9163 58.2716 12.7742C58.6309 12.6321 59.0404 12.5611 59.5 12.5611C60.0181 12.5611 60.4924 12.6426 60.9227 12.8055C61.3573 12.9685 61.7312 13.2004 62.0446 13.5012L61.6873 14.2032ZM64.8096 16.0521C65.0729 15.793 65.3612 15.5862 65.6745 15.4316C65.9879 15.2728 66.3535 15.1934 66.7713 15.1934C67.1223 15.1934 67.4294 15.2519 67.6926 15.3689C67.9601 15.4859 68.1836 15.651 68.3633 15.8641C68.5471 16.0772 68.685 16.3341 68.7769 16.635C68.8688 16.9316 68.9148 17.2596 68.9148 17.6189V21.6865H67.5736V17.6189C67.5736 17.1886 67.4733 16.8543 67.2727 16.6162C67.0763 16.378 66.7755 16.2589 66.3702 16.2589C66.0694 16.2589 65.7894 16.3279 65.5304 16.4657C65.2755 16.6036 65.0352 16.7916 64.8096 17.0298V21.6865H63.4621V12.4107H64.8096V16.0521ZM73.2525 15.1934C73.7246 15.1934 74.1508 15.2707 74.531 15.4253C74.9154 15.5799 75.2413 15.7993 75.5087 16.0834C75.7803 16.3675 75.9893 16.7123 76.1355 17.1176C76.2817 17.5228 76.3549 17.9783 76.3549 18.4839C76.3549 18.9894 76.2817 19.4449 76.1355 19.8502C75.9893 20.2555 75.7803 20.6023 75.5087 20.8906C75.2413 21.1747 74.9154 21.394 74.531 21.5486C74.1508 21.7032 73.7246 21.7805 73.2525 21.7805C72.7761 21.7805 72.3458 21.7032 71.9614 21.5486C71.5811 21.394 71.2552 21.1747 70.9836 20.8906C70.7121 20.6023 70.5031 20.2555 70.3569 19.8502C70.2107 19.4449 70.1375 18.9894 70.1375 18.4839C70.1375 17.9783 70.2107 17.5228 70.3569 17.1176C70.5031 16.7123 70.7121 16.3675 70.9836 16.0834C71.2552 15.7993 71.5811 15.5799 71.9614 15.4253C72.3458 15.2707 72.7761 15.1934 73.2525 15.1934ZM73.2525 20.7276C73.8291 20.7276 74.2573 20.5354 74.5373 20.151C74.8214 19.7624 74.9635 19.2088 74.9635 18.4901C74.9635 17.7715 74.8214 17.2178 74.5373 16.8292C74.2573 16.4365 73.8291 16.2401 73.2525 16.2401C72.6675 16.2401 72.233 16.4365 71.9488 16.8292C71.6647 17.2178 71.5226 17.7715 71.5226 18.4901C71.5226 19.2088 71.6647 19.7624 71.9488 20.151C72.233 20.5354 72.6675 20.7276 73.2525 20.7276ZM78.9971 20.0821C79.1851 20.3244 79.3898 20.4957 79.6113 20.596C79.8369 20.6921 80.0855 20.7401 80.3571 20.7401C80.8836 20.7401 81.2931 20.5479 81.5855 20.1635C81.8822 19.7791 82.0305 19.2067 82.0305 18.4463C82.0305 18.0535 81.9971 17.7192 81.9302 17.4435C81.8634 17.1635 81.7673 16.9358 81.6419 16.7603C81.5166 16.5848 81.3641 16.4574 81.1844 16.378C81.0047 16.2986 80.8021 16.2589 80.5765 16.2589C80.2339 16.2589 79.9372 16.3341 79.6865 16.4845C79.44 16.6308 79.2102 16.8418 78.9971 17.1176V20.0821ZM78.9281 16.2213C79.1955 15.9079 79.4985 15.6551 79.8369 15.4629C80.1795 15.2707 80.5765 15.1746 81.0277 15.1746C81.3871 15.1746 81.713 15.2478 82.0055 15.394C82.2979 15.5361 82.5486 15.745 82.7575 16.0207C82.9665 16.2965 83.1273 16.6391 83.2401 17.0486C83.3571 17.4539 83.4156 17.9198 83.4156 18.4463C83.4156 18.9184 83.3509 19.3592 83.2213 19.7687C83.096 20.174 82.9142 20.527 82.6761 20.8279C82.4379 21.1245 82.1496 21.3585 81.8112 21.5298C81.4727 21.697 81.0904 21.7805 80.6642 21.7805C80.2882 21.7805 79.9685 21.7199 79.7053 21.5988C79.4462 21.4776 79.2102 21.3105 78.9971 21.0974V23.8112H77.6496V15.2937H78.4643C78.6482 15.2937 78.7652 15.3794 78.8153 15.5507L78.9281 16.2213Z" fill="#BD1187"/>
</svg>
